<svg fill="none" height="14" viewBox="0 0 15 14" width="15" xmlns="http://www.w3.org/2000/svg" xmlns:xlink="http://www.w3.org/1999/xlink"><clipPath id="a"><path d="m.5 0h14v14h-14z"/></clipPath><g clip-path="url(#a)"><path d="m1.50242 11.148c.10723.96.87459 1.727 1.8341 1.838 1.08422.1254 2.20457.2491 3.35086.2491s2.26663-.1237 3.35082-.2491c.9596-.111 1.7269-.878 1.8342-1.838.1205-1.079.2368-2.19398.2368-3.33471 0-1.14072-.1163-2.25567-.2368-3.33475-.1073-.95994-.8746-1.72693-1.8342-1.83792-1.08419-.12542-2.20453-.24914-3.35082-.24914s-2.26664.12372-3.35086.24914c-.95951.11099-1.72687.87798-1.8341 1.83792-.12054 1.07908-.23686 2.19403-.23686 3.33475 0 1.14073.11632 2.25571.23686 3.33471z" fill="#fff"/><g stroke="#4147d5" stroke-linecap="round"><path d="m5.88988 2.41016c-.8693.03915-1.72195.13433-2.55335.2305-.95952.11099-1.72688.87798-1.83411 1.83792-.12054 1.07908-.23686 2.19403-.23686 3.33475 0 1.14073.11632 2.25567.23686 3.33477.10723.9599.87459 1.7269 1.8341 1.8379 1.08422.1254 2.20457.2492 3.35086.2492s2.26663-.1238 3.35082-.2492c.9596-.111 1.7269-.8779 1.8342-1.8379.0867-.7762.1712-1.57099.2118-2.38058"/><path d="m10.6084 1.30268-3.68485 4.18116-.50482 2.37432c-.08123.38204.317.74353.68994.62629l2.3628-.74281 3.80613-4.00491c.6321-.66517.5218-1.77771-.2434-2.45452-.7472-.660965-1.8333-.651799-2.4258.02047z" fill="#d7e0ff" stroke-linejoin="round"/></g></g></svg>